<?xml version="1.0" encoding="utf-8"?>
<!-- Generator: Adobe Illustrator 26.4.1, SVG Export Plug-In . SVG Version: 6.00 Build 0)  -->
<svg version="1.1" id="Layer_1" xmlns="http://www.w3.org/2000/svg" xmlns:xlink="http://www.w3.org/1999/xlink" x="0px" y="0px"
	 viewBox="0 0 340 85" style="enable-background:new 0 0 340 85;" xml:space="preserve">
<style type="text/css">
	.st0{fill:#005EB8;}
</style>
<g>
	<polygon class="st0" points="90.2851181,38.3363762 83.1030426,60.2702675 82.972023,60.2702675 75.7899475,38.3363762 
		69.6455688,38.3363762 79.5258179,66.6822968 86.5491943,66.6822968 96.4294434,38.3363762 	"/>
	<path class="st0" d="M140.8047333,49.5816727h-0.0767059c-0.5296631-1.092392-1.31073-1.9551086-2.353775-2.58881
		c-1.0377045-0.6390381-2.2557983-0.9557152-3.6538849-0.9557152c-1.5403748,0-2.9385223,0.3933525-4.1892395,1.1850586
		c-1.2507172,0.7920418-2.2500916,1.9607773-2.992836,3.5118713c-0.7483826,1.5567474-1.119751,3.4735184-1.119751,5.7619896
		c0,2.2337914,0.3603821,4.1292305,1.0760803,5.6856461c0.7207108,1.562088,1.7094345,2.7528191,2.9655075,3.5718727
		c1.2617645,0.824707,2.6871796,1.2344055,4.2765808,1.2344055c1.3871002,0,2.5941467-0.3056946,3.631897-0.9230652
		c1.0324097-0.6170273,1.8297577-1.4747391,2.3978119-2.5831413h0.076355v3.2005119h5.4289551V38.3363762h-5.4669952V49.5816727z
		 M140.4660492,59.7185745c-0.3660278,0.9173813-0.895752,1.6274261-1.5894165,2.1301193
		c-0.6937103,0.4970284-1.5074005,0.7480354-2.4468231,0.7480354c-0.8956909,0-1.6820984-0.2346649-2.3594818-0.6990395
		c-0.6716766-0.4696808-1.1960602-1.1633949-1.5784149-2.0697708c-0.3766632-0.9123878-0.5680542-2.0264587-0.5680542-3.331852
		c0-1.3107452,0.191391-2.4138107,0.5680542-3.3151932c0.3823547-0.8957138,0.9067383-1.5784149,1.5784149-2.0481071
		c0.6773834-0.469696,1.4637909-0.7043762,2.3594818-0.7043762c0.9394226,0,1.7531128,0.2456703,2.4358368,0.7427139
		c0.6883087,0.4916878,1.2180328,1.1907272,1.5894165,2.0971184c0.3713684,0.9067039,0.5569916,1.982769,0.5569916,3.2278442
		C141.0120544,57.725132,140.8317261,58.8008499,140.4660492,59.7185745z"/>
	<path class="st0" d="M108.9059906,60.3082733c-0.179985,0.5353622-0.4750595,1.0050583-0.884758,1.4037476
		c-0.4149857,0.3986893-0.9066772,0.7047043-1.4747238,0.912056c-0.5733414,0.2130013-1.1960526,0.3276825-1.8787842,0.3386726
		c-0.9773941-0.0109901-1.8131256-0.2403336-2.5121384-0.6937027c-0.6990128-0.4476852-1.234375-1.0483856-1.6057434-1.8077583
		c-0.3770142-0.7590523-0.5626984-1.6057587-0.5626984-2.5451469v-0.1146812h14.0801315v-1.2887344
		c0-2.102787-0.3876572-3.9378891-1.1577301-5.5056458c-0.7700195-1.5674057-1.873436-2.7851524-3.3098373-3.6592026
		c-1.4417572-0.8737068-3.1405487-1.31073-5.1066742-1.31073c-1.9880524,0-3.7191849,0.4423485-5.1992645,1.3270721
		c-1.4747238,0.890377-2.610817,2.1191139-3.4135208,3.6922035c-0.8030472,1.5730896-1.2070999,3.3971901-1.2070999,5.4779663
		c0,2.1137924,0.4040527,3.959568,1.2123947,5.521656c0.8137436,1.5677528,1.9607773,2.7801437,3.4519043,3.6428604
		c1.4853668,0.8577271,3.2441788,1.2890854,5.2759628,1.2890854c1.6657639,0,3.1511917-0.2786865,4.4565735-0.8300476
		c1.2997437-0.5517044,2.36483-1.3274231,3.1952133-2.3268089c0.8300323-1.0050583,1.3653946-2.1791153,1.6054001-3.5228615
		H108.9059906z M100.566185,52.3945007c0.3713684-0.6937027,0.9010391-1.2560654,1.5894012-1.6877708
		c0.6880798-0.4313583,1.4800797-0.6443596,2.375824-0.6443596c0.8356781,0,1.5894089,0.1856728,2.2554474,0.5570259
		c0.6663895,0.371357,1.2017517,0.8847122,1.605751,1.5347557c0.4043961,0.6443748,0.6227112,1.3980789,0.6446915,2.2611237
		h-8.9824905C100.1055069,53.6929054,100.2381363,53.0071983,100.566185,52.3945007z"/>
	<rect x="150.6177521" y="46.3484879" class="st0" width="5.467001" height="20.3338127"/>
	<path class="st0" d="M153.3486023,37.4513206c-0.8630524,0-1.5948029,0.2896919-2.2064667,0.874054
		c-0.6063843,0.5843735-0.912384,1.2944031-0.912384,2.1301155c0,0.8190575,0.3059998,1.5290871,0.912384,2.1191292
		c0.6116638,0.589695,1.3434143,0.8847084,2.2064667,0.8847084c0.8573761,0,1.5947113-0.2950134,2.2064209-0.8847084
		c0.6060333-0.5900421,0.9120941-1.3000717,0.9120941-2.1191292c0-0.8357124-0.3060608-1.545742-0.9120941-2.1301155
		C154.9433136,37.7410126,154.2059784,37.4513206,153.3486023,37.4513206z"/>
	<path class="st0" d="M117.4519501,68.7794189c0,0.6280289-0.15271,1.0760651-0.4640121,1.3490677
		c-0.3060608,0.2676849-0.7810669,0.4040222-1.4254684,0.4040222h-1.1360397v4.4675903h2.1954346
		c2.108139,0,3.6812592-0.4860229,4.72995-1.4470749c1.0430527-0.9614029,1.5674286-2.3924789,1.5674286-4.292923V46.3484879
		h-5.4672928V68.7794189z"/>
	<path class="st0" d="M120.1827469,37.4513206c-0.8573608,0-1.5947571,0.2896919-2.2007828,0.874054
		c-0.6117172,0.5843735-0.9177246,1.2944031-0.9177246,2.1301155c0,0.8190575,0.3060074,1.5290871,0.9177246,2.1191292
		c0.6060257,0.589695,1.3434219,0.8847084,2.2007828,0.8847084c0.8630676,0,1.595108-0.2950134,2.2068253-0.8847084
		c0.6116638-0.5900421,0.9120331-1.3000717,0.9120331-2.1191292c0-0.8357124-0.3003693-1.545742-0.9120331-2.1301155
		C121.7778549,37.7410126,121.0458145,37.4513206,120.1827469,37.4513206z"/>
	<path class="st0" d="M319.6177063,47.3478775c-1.4364319-0.8737068-3.140564-1.31073-5.1009827-1.31073
		c-1.9937744,0-3.724884,0.4423485-5.1996155,1.3270721c-1.4801331,0.890377-2.6161804,2.1191139-3.4188843,3.6922035
		c-0.8030396,1.5730896-1.2017517,3.3971901-1.2017517,5.4779663c0,2.1137924,0.4044189,3.959568,1.2124023,5.521656
		c0.8084106,1.5677528,1.9554749,2.7801437,3.4465637,3.6428604c1.4854126,0.8577271,3.2441711,1.2890854,5.2759399,1.2890854
		c1.6657715,0,3.1512146-0.2786865,4.456604-0.8300476c1.2997437-0.5517044,2.3648071-1.3274231,3.1951904-2.3268089
		c0.8300476-1.0050583,1.3654175-2.1791153,1.6054077-3.5228615h-4.9645996
		c-0.1799927,0.5353622-0.4750061,1.0050583-0.8847046,1.4037476c-0.4150391,0.3986893-0.9010925,0.7047043-1.4744263,0.912056
		c-0.5737,0.2130013-1.1964111,0.3276825-1.8790894,0.3386726c-0.9721069-0.0109901-1.8131104-0.2403336-2.5121765-0.6937027
		c-0.6990356-0.4476852-1.234375-1.0483856-1.6057739-1.8077583c-0.3713684-0.7590523-0.5570374-1.6057587-0.5570374-2.5451469
		v-0.1146812h14.0744934v-1.2887344c0-2.102787-0.3876648-3.9378891-1.1577454-5.5056458
		C322.1575012,49.4396744,321.0541077,48.2219276,319.6177063,47.3478775z M310.0777893,54.4152756
		c0.0466919-0.7223701,0.1783447-1.4080772,0.5063782-2.0207748c0.3713684-0.6937027,0.9010315-1.2560654,1.5894165-1.6877708
		c0.6880188-0.4313583,1.4801331-0.6443596,2.3811646-0.6443596c0.8303833,0,1.5840454,0.1856728,2.2500916,0.5570259
		c0.6663818,0.371357,1.2017517,0.8847122,1.6058044,1.5347557c0.4043579,0.6443748,0.6226501,1.3980789,0.6499939,2.2611237
		H310.0777893z"/>
	<path class="st0" d="M301.8740234,62.3457222c-0.257019,0.0163422-0.5299988,0.0216637-0.8247375,0.0216637
		c-0.4533081,0-0.8466492-0.0600014-1.1853333-0.1746674c-0.3440552-0.1146774-0.6060791-0.3386879-0.7917786-0.6610489
		c-0.1859741-0.3276825-0.2786865-0.8080368-0.2786865-1.4364014v-9.4321976h3.8722534v-4.3145828h-3.8722534v-5.0849457h-5.4669189
		v5.0849457h-2.8675232v4.3145828h2.8675232v10.3552475c0,1.3380775,0.267334,2.4251289,0.7973328,3.2715225
		c0.5350342,0.8520355,1.2887573,1.4747314,2.2611389,1.868103c0.977417,0.3986893,2.1244507,0.6007004,3.446228,0.6007004
		c0.6716614,0,1.256073-0.0163422,1.7530518-0.0383377c0.5023804-0.0273438,0.895752-0.0546799,1.174408-0.0763397
		l-0.2676697-4.3365822C302.3380432,62.3237267,302.1307373,62.3347168,301.8740234,62.3457222z"/>
	<path class="st0" d="M266.2660522,46.0371475c-1.1960449,0-2.2064819,0.3330193-3.0311584,1.0050583
		c-0.8304443,0.6663704-1.4364624,1.6327438-1.8244629,2.9054832h-0.1526489v-3.5992012h-5.2543335v20.3338089h5.4506531v-11.360302
		c0-0.977726,0.1803284-1.7970963,0.5463562-2.4688034c0.3660278-0.6663704,0.8573608-1.1687355,1.4743652-1.5074234
		c0.6174316-0.3440094,1.2944641-0.5133514,2.0375061-0.5133514c0.436676,0,0.8900452,0.0273323,1.3490295,0.0873337
		c0.4640808,0.0603294,0.8137512,0.1313362,1.0594788,0.2186852v-4.9102821
		c-0.2077332-0.0490074-0.4534302-0.0926666-0.7427673-0.1310043
		C266.894043,46.0591431,266.5880432,46.0371475,266.2660522,46.0371475z"/>
	<path class="st0" d="M283.9989929,46.905529c-1.3053589-0.5790367-2.8674927-0.8683815-4.6752319-0.8683815
		c-1.8624878,0-3.4519043,0.3003502-4.7679749,0.9067192c-1.3163757,0.6006889-2.3320923,1.4144058-3.0531311,2.435791
		c-0.7153625,1.0214005-1.1140747,2.1574631-1.1907654,3.418869h5.2379761
		c0.0873413-0.8080521,0.4640198-1.4634171,1.1357422-1.9551201c0.6663513-0.4970284,1.5240479-0.7426987,2.5781555-0.7426987
		c1.0540466,0,1.8787842,0.2403488,2.4848022,0.7153664c0.6010132,0.475029,0.9067383,1.1087303,0.9067383,1.9061089v0.0930023
		c0,0.4366951-0.1636963,0.7643776-0.4860535,0.9830627c-0.3166504,0.218338-0.8467102,0.3876839-1.5784302,0.5023613
		c-0.7316895,0.114666-1.7203979,0.2350159-2.9658508,0.3660202c-1.0484009,0.0873337-2.0587463,0.2566795-3.0201721,0.4970284
		c-0.9610291,0.2456703-1.8131104,0.6007004-2.5504456,1.059391c-0.7373962,0.4643555-1.3217773,1.0760651-1.7424622,1.8407707
		c-0.4260559,0.7643776-0.6390686,1.7204247-0.6390686,2.8781548c0,1.3490829,0.3060608,2.4688072,0.9067383,3.369854
		c0.6007385,0.9010544,1.4311218,1.5674286,2.4851685,2.0097885c1.0540771,0.4423447,2.2554321,0.6663742,3.6208801,0.6663742
		c1.0377197,0,1.9500732-0.131012,2.7417908-0.3877029c0.7920532-0.2513428,1.4584656-0.6173553,2.0101624-1.092392
		c0.5513611-0.475029,1.0047302-1.0430603,1.3486938-1.6984291h0.0767212v2.8728294h5.221283V52.7385101
		c0-1.2944031-0.355011-2.4467964-1.0597229-3.4571915C286.3201599,48.2762604,285.3097839,47.4845543,283.9989929,46.905529z
		 M282.693634,59.2268867c0,0.7483673-0.1803284,1.4147377-0.5407104,2.0044327
		c-0.3606873,0.5900421-0.879425,1.0540695-1.5621033,1.3927574c-0.6773682,0.3440094-1.4854126,0.5133553-2.4247742,0.5133553
		c-0.9777527,0-1.7534485-0.2073364-2.3321533-0.6170311c-0.5737-0.4096909-0.8687439-0.9830627-0.8850403-1.7151031
		c0-0.5513573,0.1640015-1.0103798,0.4806519-1.3760681c0.3223877-0.3660202,0.7537231-0.6553802,1.2944336-0.8740501
		c0.5353699-0.2183533,1.1360474-0.371357,1.7914429-0.4640274c0.9450684-0.1256714,1.8024292-0.2733498,2.5561523-0.4316864
		c0.7590332-0.1583557,1.2997437-0.3330231,1.6221008-0.5133705V59.2268867z"/>
	<path class="st0" d="M337.6947021,62.3073845c-0.1526794,0.0163422-0.360321,0.0273323-0.6170349,0.0383377
		c-0.2566833,0.0163422-0.5353699,0.0216637-0.8300171,0.0216637c-0.4480286,0-0.8414307-0.0600014-1.1797791-0.1746674
		c-0.3443298-0.1146774-0.6063843-0.3386879-0.7920532-0.6610489c-0.1856384-0.3276825-0.2786865-0.8080368-0.2786865-1.4364014
		v-9.4321976h3.8669128v-4.3145828h-3.8669128v-5.0849457h-5.4669189v5.0849457h-2.8728638v4.3145828h2.8728638v10.3552475
		c0,1.3380775,0.2619629,2.4251289,0.7973328,3.2715225c0.5296631,0.8520355,1.289093,1.4747314,2.2611389,1.868103
		c0.9776917,0.3986893,2.1244202,0.6007004,3.446228,0.6007004c0.6663208,0,1.2507019-0.0163422,1.7533875-0.0383377
		c0.5023804-0.0273438,0.8900452-0.0546799,1.1740723-0.0763397L337.6947021,62.3073845z"/>
	<path class="st0" d="M170.7093811,46.0371475c-1.196106,0-2.2064819,0.3330193-3.0365143,1.0050583
		c-0.8247375,0.6663704-1.4311066,1.6327438-1.8187714,2.9054832h-0.1530457v-3.5992012h-5.2539368v20.3338089h5.4453125v-11.360302
		c0-0.977726,0.1856842-1.7970963,0.551712-2.4688034c0.3656616-0.6663704,0.8573608-1.1687355,1.4744263-1.5074234
		c0.6116638-0.3440094,1.2944031-0.5133514,2.0370789-0.5133514c0.437027,0,0.8850555,0.0273323,1.3491211,0.0873337
		c0.4643555,0.0603294,0.8140411,0.1313362,1.0596771,0.2186852v-4.9102821
		c-0.2076721-0.0490074-0.4533081-0.0926666-0.742691-0.1310043
		C171.3320312,46.0591431,171.0263824,46.0371475,170.7093811,46.0371475z"/>
	<polygon class="st0" points="216.2190704,46.3484879 209.845047,46.3484879 202.6249847,54.1422577 202.3736572,54.1422577 
		202.3736572,38.3363762 196.9066467,38.3363762 196.9066467,66.6822968 202.3736572,66.6822968 202.3736572,60.1682625 
		204.0727234,58.3271561 210.2110596,66.6822968 216.6614532,66.6822968 208.202301,55.16399 	"/>
	<path class="st0" d="M188.9013977,47.3478775c-1.4364014-0.8737068-3.1405487-1.31073-5.1013184-1.31073
		c-1.9934692,0-3.724884,0.4423485-5.1996155,1.3270721c-1.4744263,0.890377-2.6161652,2.1191139-3.418869,3.6922035
		s-1.2014008,3.3971901-1.2014008,5.4779663c0,2.1137924,0.4040527,3.959568,1.2123871,5.521656
		c0.8084106,1.5677528,1.9551392,2.7801437,3.4462128,3.6428604c1.4910736,0.8577271,3.2498779,1.2890854,5.2759705,1.2890854
		c1.6657562,0,3.1568756-0.2786865,4.4565735-0.8300476c1.3054352-0.5517044,2.3704681-1.3274231,3.1952057-2.3268089
		c0.8300323-1.0050583,1.3654022-2.1791153,1.6110992-3.5228615h-4.9699554
		c-0.1803436,0.5353622-0.4753571,1.0050583-0.8847046,1.4037476c-0.4096832,0.3986893-0.9014435,0.7047043-1.4747772,0.912056
		c-0.5680542,0.2130013-1.1960602,0.3276825-1.8734283,0.3386726c-0.9774017-0.0109901-1.8187714-0.2403336-2.5178375-0.6937027
		c-0.6990204-0.4476852-1.234375-1.0483856-1.6057434-1.8077583c-0.3713226-0.7590523-0.5570679-1.6057587-0.5570679-2.5451469
		v-0.1146812h14.0748444v-1.2887344c0-2.102787-0.3877106-3.9378891-1.1580811-5.5056458
		C191.4408722,49.4396744,190.3378143,48.2219276,188.9013977,47.3478775z M179.3618011,54.4152756
		c0.0470734-0.7223701,0.1783752-1.4080772,0.5114288-2.0207748c0.3713074-0.6937027,0.9010315-1.2560654,1.5837097-1.6877708
		c0.6883698-0.4313583,1.4801331-0.6443596,2.3814545-0.6443596c0.8353882,0,1.5837708,0.1856728,2.2501526,0.5570259
		c0.6663971,0.371357,1.2070465,0.8847122,1.6110992,1.5347557c0.4043427,0.6443748,0.6173706,1.3980789,0.6443481,2.2611237
		H179.3618011z"/>
	<path class="st0" d="M229.7896576,62.3457222c-0.2566986,0.0163422-0.5296783,0.0216637-0.8247375,0.0216637
		c-0.4533234,0-0.8466644-0.0600014-1.1850739-0.1746674c-0.3386841-0.1146774-0.606369-0.3386879-0.7920532-0.6610489
		c-0.1856232-0.3276825-0.2786713-0.8080368-0.2786713-1.4364014v-9.4321976h3.8725891v-4.3145828h-3.8725891v-5.0849457h-5.4669495
		v5.0849457h-2.8675079v4.3145828h2.8675079v10.3552475c0,1.3380775,0.2676849,2.4251289,0.7973633,3.2715225
		c0.5353546,0.8520355,1.289093,1.4747314,2.2664948,1.868103c0.9723206,0.3986893,2.1247711,0.6007004,3.4464874,0.6007004
		c0.6660461,0,1.2507782-0.0163422,1.747757-0.0383377c0.5023956-0.0273438,0.895401-0.0546799,1.1740723-0.0763397
		l-0.2676849-4.3365822C230.2536621,62.3237267,230.0463409,62.3347168,229.7896576,62.3457222z"/>
	<path class="st0" d="M248.0906525,47.3478775c-1.5130463-0.8737068-3.2988434-1.31073-5.3526001-1.31073
		c-2.0424957,0-3.822876,0.4370232-5.3413391,1.31073c-1.5237427,0.8740501-2.6981659,2.0917969-3.533844,3.6592026
		c-0.8353729,1.5677567-1.2507629,3.4081955-1.2507629,5.5273094c0,2.102787,0.41539,3.9378891,1.2507629,5.5053139
		c0.8356781,1.567421,2.0101013,2.780159,3.533844,3.6485443c1.5184631,0.8683853,3.2988434,1.2997437,5.3413391,1.2997437
		c2.0537567,0,3.8395538-0.4313583,5.3526001-1.2997437c1.5181122-0.8683853,2.6925354-2.0811234,3.5225677-3.6485443
		c0.8356781-1.5674248,1.256424-3.4025269,1.256424-5.5053139c0-2.1191139-0.4207458-3.9595528-1.256424-5.5273094
		C250.7831879,49.4396744,249.6087646,48.2219276,248.0906525,47.3478775z M246.752594,59.7949181
		c-0.3933563,0.9177132-0.9340668,1.6277542-1.6277924,2.1301193c-0.6936493,0.4970245-1.4853668,0.7483673-2.3867493,0.7483673
		c-0.9120941,0-1.7094421-0.2513428-2.3974609-0.7483673c-0.6884308-0.5023651-1.2234497-1.2124062-1.6058044-2.1301193
		c-0.3876648-0.9173927-0.5843353-2.0044479-0.5953827-3.2605286c0-1.2723961,0.19104-2.3704529,0.5733948-3.2931824
		c0.3880005-0.9230499,0.9287262-1.6387482,1.616745-2.1464462c0.6937103-0.5080338,1.4964142-0.7647095,2.4085083-0.7647095
		c0.9123688,0,1.7097168,0.2566757,2.3977966,0.7647095c0.6880341,0.5076981,1.2233887,1.2233963,1.616745,2.1464462
		c0.3930664,0.9227295,0.5897369,2.0207863,0.5897369,3.2931824
		C247.3423309,57.7904701,247.1456604,58.8775253,246.752594,59.7949181z"/>
</g>
<g>
	<path class="st0" d="M52.4446716,38.3363342H2.1932065c-0.1742554,0-0.2426759,0.1213379-0.1555786,0.2706909
		l25.1226196,43.5220337c0.0839233,0.149292,0.2302246,0.149292,0.31427,0L52.603241,38.6070251
		C52.6872864,38.4576721,52.6158142,38.3363342,52.4446716,38.3363342z M40.9986267,45.0066223L27.4745178,68.4305725
		c-0.0840454,0.149353-0.2303467,0.149353-0.31427,0L13.6391296,45.0066223
		c-0.0840454-0.149292-0.0186157-0.2706299,0.1555786-0.2706299h27.0484009
		C41.0141907,44.7359924,41.0857239,44.8573303,40.9986267,45.0066223z"/>
	<path class="st0" d="M9.7402649,25.613678c0,0.0031128,1.1448975,1.3720093,1.1448975,2.7720337
		c0,0.0778198-0.0062256,0.1586914-0.0124512,0.2364502c0,0,0.479126,0.3795776,0.9955444,0.4760132
		c0.1494141,0.0280151,0.3048706,0.0342407,0.447998,0.0186768c0.0373535,0.0870972,0.0872192,0.2177734,0.0872192,0.3795776
		l0.1866455,5.2640991h29.4597778l0.1834717-5.2640991c0-0.1618042,0.0498047-0.2924805,0.0839844-0.3795776
		c0.1494141,0.015564,0.3049927,0.0093384,0.4480591-0.0186768c0.522644-0.0964355,0.9956055-0.4760132,0.9956055-0.4760132
		c-0.0031738-0.0777588-0.0125122-0.1586304-0.0125122-0.2364502c0-1.4000244,1.151123-2.7689209,1.151123-2.7720337
		c0.7623291-0.9208984,3.9606323-1.3813477,3.9916992-1.3876343l0.1461792-0.0279541l-0.0155029-0.1524658
		c-0.1835938-0.9893799-0.7374268-1.7142334-1.6333618-2.0782471c0.8711548-1.2196045,1.3595581-2.5200806,1.3595581-3.6867676
		c0-0.2084351-0.0155029-0.4168701-0.0498047-0.6159668c-0.1555786-1.0142822-0.7092896-1.8667603-1.6333618-2.5200806
		c-2.1964722-1.5462646-4.9157104-0.883606-6.4556274-0.2893677c-0.1555786-0.9955444-0.793396-2.8964844-3.4877319-3.1484985
		c-2.1591187-0.1959839-3.7706909,0.7093506-5.3262939,1.5898438c-1.1946411,0.6688843-2.3302612,1.2973022-3.6182861,1.3471069
		v-0.8088989c1.2973022-0.3515625,2.2401123-1.5587158,2.2401123-2.9525146c0-1.4591675-0.9956055-2.6787109-2.3770142-2.9804688
		V6.8470154h0.7155762c0.2022095,0.2613525,0.4978027,0.4324951,0.8400269,0.4324951
		c0.5942383,0,1.0857544-0.4884644,1.0857544-1.0858154s-0.4915161-1.0795898-1.0857544-1.0795898
		c-0.3328857,0-0.628479,0.1680298-0.8400269,0.4355469h-0.7311401c0-0.2146606-0.0030518-0.7218018-0.0030518-0.8026733
		c0.2332764-0.2053223,0.3794556-0.4852905,0.3794556-0.7964478c0-0.6004639-0.4884033-1.0795898-1.0825806-1.0795898
		c-0.5973511,0-1.0858154,0.479126-1.0858154,1.0795898c0,0.3111572,0.149292,0.5911255,0.3826294,0.7964478
		c0,0.0808716-0.0061646,0.5880127-0.0061646,0.8026733h-0.7311401c-0.2053833-0.2675171-0.5008545-0.4355469-0.8369141-0.4355469
		c-0.5973511,0-1.0827026,0.4822388-1.0827026,1.0795898s0.4853516,1.0858154,1.0827026,1.0858154
		c0.3360596,0,0.6315308-0.1711426,0.8369141-0.4324951h0.7186279v1.0547485
		c-1.3813477,0.3017578-2.3737793,1.5213013-2.3737793,2.9804688c0,1.3937988,0.9395142,2.6009521,2.2337646,2.9525146v0.8088989
		c-1.2849121-0.0498047-2.4204102-0.6782227-3.6182251-1.3471069c-1.555603-0.8804932-3.1641235-1.7858276-5.326416-1.5898438
		c-2.6880493,0.2520142-3.3289185,2.1529541-3.4876099,3.1484985c-1.5369263-0.5942383-4.2498779-1.256897-6.4464116,0.2893677
		c-0.9332886,0.6533203-1.4839478,1.5057983-1.6394653,2.5200806c-0.0311279,0.1990967-0.0498657,0.4075317-0.0498657,0.6159668
		c0,1.166687,0.4884644,2.4671631,1.3627319,3.6867676c-0.8929443,0.3640137-1.4529419,1.0888672-1.6334229,2.0782471
		l-0.0217285,0.1524658l0.1524048,0.0279541C5.7765803,24.2323303,8.9780579,24.6927795,9.7402649,25.613678z M40.183136,19.4846497
		l0.0870972-0.0684814l-0.0280151-0.0963745c-0.074646-0.2955933-0.3048096-0.5164795-0.4262085-0.6160889
		c0,0-0.015564-0.0092773-0.0249023-0.0217896c0.3920288-0.6782227,0.6813354-1.5026245,0.8027344-2.2897949
		c1.1915283-0.4137573,3.6898193-0.8462524,5.1333618,0.329834c0.7124634,0.5786743,1.0671997,1.3190918,1.0671997,2.1933594
		c0,0.8026733-0.3048706,1.7297974-0.9116211,2.7502441c-0.4542236,0.0311279-0.8120117,0.1431274-1.0453491,0.3764648
		c-0.447937,0.4573364-0.6937866,1.4622803-0.8181763,2.0440674c-0.1618652-0.6347046-0.4511719-1.390686-0.9614258-1.4871826
		c-0.5693359-0.1026611-1.1790771,0.6315918-1.4030762,1.7080688c-0.1525269,0.7560425-0.0684814,1.4840088,0.2052612,1.8386841
		c0,0,0.4542847,0.6813354,1.0422363,0.2053833c-0.2146606,0.6004028-1.0048828,1.2693481-1.7546997,1.2693481
		c-0.4604492,0-1.1107178-0.149353-1.7919922-0.3018188l-1.1044922-0.239563
		c-0.2768555-0.0528564-0.4915771-0.1897583-0.6346436-0.4199829c-0.1897583-0.2924805-0.2426758-0.6782227-0.2426758-1.0360107
		c0-0.2800293,0.0341797-0.5289307,0.0684814-0.7062378c0.432373,0.3391113,1.1945801,0.7435303,1.7017822,0.4884644
		c0.447937-0.2115479,0.8742065-0.8120728,1.107605-1.5649414c0.3577881-1.1448975,0.1803589-2.2462769-0.4169922-2.5076294
		c-0.8212891-0.2613525-1.3751221,0.3173218-1.7359619,0.5817871C38.2822571,21.1024475,39.6324158,19.9046326,40.183136,19.4846497
		z M28.1833191,16.009491c1.3439941-0.0404663,2.7284546-0.612915,4.0756836-1.182312
		c1.779541-0.7497559,3.4657593-1.465332,4.7974243-0.7963867c1.0484009,0.5164185,1.5773315,1.4404297,1.5773315,2.7191162
		c0,0.4666748-0.0715942,0.9831543-0.2208862,1.5431519h-0.0653687c-0.5475464,0-1.0142212,0.0933228-1.3284302,0.2769165
		c-0.4448853,0.2644653-0.5911255,0.8586426-0.5911255,2.1528931c0,0.0249023-0.0124512,0.6409302-0.0684814,0.7840576
		c-0.3452759-0.4853516-0.9644775-1.3378296-1.6676025-1.166687c-0.5879517,0.1275635-1.0671387,0.942688-1.1604004,1.9724731
		c-0.1089478,1.1355591,0.2831421,2.1560059,0.8866577,2.3613892c0.2831421,0.1462402,0.762207,0.1119995,1.4186401-0.074707
		c-0.2394409,0.5880737-0.8803711,1.9071655-1.9195557,1.7671509l-1.9786987-0.1399536l-1.7827148-0.1151733
		c-1.4249878-0.1586304-1.9009399-2.1404419-1.960022-2.6787109c0.0310669,0.0186768,0.0621948,0.0435791,0.059082,0.0404663
		c0.0186157,0.0217896,0.7560425,0.7249146,1.2693481,0.9053345c0.2426758,0.074707,0.5133667,0.0404663,0.7716064-0.0964355
		c0.5227051-0.2769165,1.00177-0.942688,1.2507324-1.7515869c0.2488403-0.7902222,0.2271118-1.6177979-0.0404663-2.1405029
		c-0.1400146-0.2644653-0.3422241-0.4386597-0.5848999-0.5164795c-0.1431274-0.0435181-0.2675781-0.0497437-0.4075928-0.0497437
		c-0.3950806,0-0.9955444,0.2738037-1.7423096,0.7839966c-0.0372314,0.0217896-0.1212769,0.0373535-0.1430664,0.0249023
		c0,0-0.0560303-0.0684204,0.0622559-0.298645l0.3265991-0.4853516c0.2023315-0.2706909,0.4356079-0.5786743,0.5880737-0.9146729
		c0.2582397-0.5724487,0.1741943-1.0204468-0.1119995-1.3067017c-0.3111572-0.31427-0.7404785-0.5724487-1.3098145-0.6845093
		V16.009491z M17.5804138,14.0307922c1.3347168-0.6689453,3.0178833,0.0466309,4.7974243,0.7963867
		c1.3441162,0.569397,2.7284546,1.1418457,4.0787354,1.182312v0.9332886
		c-0.5724487,0.1120605-0.9986572,0.3702393-1.3190918,0.6845093c-0.2861938,0.2862549-0.3671265,0.7342529-0.105835,1.3067017
		c0.1524658,0.3359985,0.3858032,0.6439819,0.5911865,0.9146729l0.3234863,0.4853516
		c0.1152344,0.2302246,0.0592041,0.298645,0.0592041,0.298645c-0.0187378,0.0124512-0.1089478-0.0031128-0.1400146-0.0249023
		c-0.7498169-0.5101929-1.3533936-0.7839966-1.7453613-0.7839966c-0.1369019,0-0.2644653,0.0062256-0.4014282,0.0497437
		c-0.239563,0.0778198-0.4448853,0.2520142-0.5786133,0.5164795c-0.2800293,0.5227051-0.2924805,1.3502808-0.0498047,2.1405029
		c0.2457275,0.8088989,0.7249146,1.4746704,1.2507324,1.7515869c0.2612915,0.1369019,0.5288696,0.1711426,0.7715454,0.0964355
		c0.5102539-0.1804199,1.2507324-0.8835449,1.2693481-0.9053345c-0.0061646,0.0031128,0.0249634-0.0217896,0.0560303-0.0404663
		c-0.0560303,0.538269-0.5321045,2.5200806-1.9538574,2.6787109l-1.7888794,0.1151733l-1.975647,0.1399536
		c-1.0422363,0.1400146-1.6831665-1.1790771-1.9195557-1.7671509c0.6595459,0.1867065,1.1386108,0.2209473,1.4217529,0.074707
		c0.6036377-0.2053833,0.9956055-1.2258301,0.8866577-2.3613892c-0.0932617-1.0297852-0.5786133-1.8449097-1.1604004-1.9724731
		c-0.703125-0.1711426-1.3223267,0.6813354-1.6738281,1.166687c-0.0529175-0.1431274-0.0653687-0.7591553-0.0653687-0.7840576
		c0-1.2942505-0.149292-1.8884277-0.5879517-2.1528931c-0.3173218-0.1835938-0.7840576-0.2769165-1.331604-0.2769165h-0.0684204
		c-0.1462402-0.5599976-0.2177734-1.0764771-0.2177734-1.5431519
		C16.0030823,15.4712219,16.5319519,14.5472107,17.5804138,14.0307922z M8.9095764,16.7219543
		c1.4466553-1.1760864,3.9449463-0.7435913,5.1334839-0.329834c0.1243896,0.7871704,0.4075317,1.6115723,0.8057251,2.2897949
		c-0.0093384,0.0125122-0.0249023,0.0217896-0.0249023,0.0217896c-0.1275635,0.0996094-0.3546753,0.3204956-0.4262085,0.6160889
		l-0.0280151,0.0963745l0.0809326,0.0684814c0.5474854,0.4199829,1.9008789,1.6177979,2.0906372,2.4298096
		c-0.3639526-0.2644653-0.9146729-0.8431396-1.7453613-0.5817871c-0.5910645,0.2613525-0.7715454,1.3627319-0.4137573,2.5076294
		c0.239563,0.7528687,0.6658325,1.3533936,1.107605,1.5649414c0.5070801,0.2550659,1.2693481-0.149353,1.704895-0.4884644
		c0.0310669,0.1773071,0.0684814,0.4262085,0.0684814,0.7062378c0,0.3577881-0.0560303,0.7435303-0.2426758,1.0360107
		c-0.1431274,0.2302246-0.3546753,0.3671265-0.6378174,0.4199829l-1.1013794,0.239563
		c-0.6813354,0.1524658-1.331543,0.3018188-1.795166,0.3018188c-0.7466431,0-1.5337524-0.6689453-1.7515259-1.2693481
		c0.5911255,0.4759521,1.0390625-0.2053833,1.0390625-0.2053833c0.2769775-0.3546753,0.3640747-1.0826416,0.2053833-1.8386841
		c-0.2177124-1.0764771-0.8338623-1.81073-1.4030762-1.7080688c-0.5040894,0.0964966-0.7965088,0.852478-0.958252,1.4871826
		c-0.1213989-0.5817871-0.3734131-1.586731-0.8151855-2.0440674c-0.239502-0.2333374-0.5911255-0.3453369-1.0484619-0.3764648
		c-0.6035156-1.0204468-0.9115605-1.9475708-0.9115605-2.7502441C7.8424373,18.0410461,8.197113,17.3006287,8.9095764,16.7219543z"
		/>
</g>
<g>
</g>
<g>
</g>
<g>
</g>
<g>
</g>
<g>
</g>
<g>
</g>
<g>
</g>
<g>
</g>
<g>
</g>
<g>
</g>
<g>
</g>
<g>
</g>
<g>
</g>
<g>
</g>
<g>
</g>
</svg>
